<?xml version="1.0" encoding="utf-8"?>
<!-- Generator: Adobe Illustrator 16.0.4, SVG Export Plug-In . SVG Version: 6.00 Build 0)  -->
<!DOCTYPE svg PUBLIC "-//W3C//DTD SVG 1.1//EN" "http://www.w3.org/Graphics/SVG/1.1/DTD/svg11.dtd">
<svg version="1.1" id="Layer_1" xmlns="http://www.w3.org/2000/svg" xmlns:xlink="http://www.w3.org/1999/xlink" x="0px" y="0px"
	 width="800px" height="480px" viewBox="0 0 800 480" enable-background="new 0 0 800 480" xml:space="preserve">
<g id="BriteHub">
	<rect fill="#4AB973" width="800" height="480"/>
</g>
<g id="Savory" display="none">
	<rect y="-50" display="inline" fill="#007053" width="800" height="500"/>
	<g display="inline">
		<g opacity="0.16">
			<path fill="#FFFFFF" d="M223.487,237.568c-10.354,0-20.615-1.186-25.352-2.362v-17.365h11.149l0.988,5.917
				c3.749,0.197,7.395,0.197,10.947,0.197c7.894,0,11.35-2.365,11.35-7.793c0-4.046-1.875-5.819-8.587-8.781l-10.654-4.734
				c-10.36-4.637-17.067-9.862-17.067-21.311c0-14.601,10.062-20.422,28.61-20.422c9.668,0,19.433,1.581,23.68,2.566v16.771h-11.147
				l-1.086-5.624c-3.355-0.196-7.304-0.295-10.458-0.295c-7.6,0-11.445,1.578-11.445,6.51c0,3.651,1.779,5.229,8.385,8.188
				l10.258,4.539c11.937,5.228,17.855,10.064,17.855,21.605C250.914,229.975,240.555,237.568,223.487,237.568z"/>
			<path fill="#FFFFFF" d="M257.715,235.895v-12.728l4.733-0.494l14.011-46.762l-4.836-0.592v-12.725h36.798l17.366,60.078
				l4.931,0.494v12.729h-28.707v-12.729l3.946-0.393l-1.379-5.034h-20.816l-1.384,5.034l3.945,0.393v12.729H257.715L257.715,235.895
				z M296.786,184.988c-0.992-3.551-1.582-7.893-2.27-11.247h-0.691c-0.596,3.354-1.287,7.595-2.269,11.247l-5.232,19.336h15.783
				L296.786,184.988z"/>
			<path fill="#FFFFFF" d="M398.583,162.595v12.725l-4.936,0.493l-17.067,60.082h-28.216l-17.068-60.082l-4.834-0.493v-12.725
				h27.726v12.725l-3.651,0.395l9.177,35.611c1.085,4.345,1.971,9.473,2.662,13.419h0.197c0.794-4.043,1.58-9.175,2.666-13.419
				l9.274-35.611l-3.652-0.395v-12.725H398.583L398.583,162.595z"/>
			<path fill="#FFFFFF" d="M434.67,237.568c-19.043,0-31.968-9.075-31.968-34.727v-7.203c0-25.748,13.022-34.727,31.968-34.727
				c18.84,0,31.861,8.979,31.861,34.727v7.203C466.531,228.493,453.61,237.568,434.67,237.568z M448.38,195.641
				c0-15.093-4.932-20.024-13.71-20.024c-8.785,0-13.816,4.932-13.816,20.024v7.203c0,15.393,5.135,20.027,13.816,20.027
				c8.581,0,13.71-4.637,13.71-20.027V195.641z"/>
			<path fill="#FFFFFF" d="M473.722,235.895v-12.728l4.638-0.494v-46.86l-4.638-0.493v-12.725c8.587-0.496,18.546-0.89,29.006-0.89
				c18.349,0,33.938,3.55,33.938,23.776v0.59c0,10.754-4.337,16.675-11.639,20.227l10.062,16.375l5.327,0.494v12.728h-17.663
				l-14.99-26.045c-1.385,0.102-3.354,0.102-4.837,0.102h-6.808v12.724l4.636,0.494v12.729h-27.031V235.895z M518.807,185.775
				c0-8.187-4.73-9.963-15.588-9.963h-7.102v20.914c2.466,0.099,4.833,0.099,7.399,0.099c10.85,0,15.288-2.563,15.288-10.456
				L518.807,185.775L518.807,185.775z"/>
			<path fill="#FFFFFF" d="M598.804,175.911l-17.066,32.655v14.502l4.638,0.592v12.234H558.85V223.66l4.938-0.592v-14.403
				l-17.167-32.754l-4.836-0.592v-12.725h17.266l9.272,19.138c1.58,3.354,3.455,7.695,4.341,10.853h0.298
				c0.984-3.157,2.764-7.597,4.338-10.853l9.275-19.138h17.168v12.725L598.804,175.911z"/>
		</g>
		<g>
			<path fill="#282928" d="M223.487,236.086c-10.354,0-20.615-1.184-25.352-2.365v-17.363h11.149l0.988,5.918
				c3.749,0.197,7.395,0.197,10.947,0.197c7.894,0,11.35-2.367,11.35-7.791c0-4.048-1.875-5.824-8.587-8.783l-10.654-4.733
				c-10.36-4.637-17.067-9.865-17.067-21.311c0-14.6,10.062-20.421,28.61-20.421c9.668,0,19.433,1.58,23.68,2.564v16.772h-11.147
				l-1.086-5.623c-3.355-0.197-7.304-0.297-10.458-0.297c-7.6,0-11.445,1.578-11.445,6.511c0,3.65,1.779,5.229,8.385,8.188
				l10.258,4.538c11.937,5.229,17.855,10.062,17.855,21.604C250.914,228.488,240.555,236.086,223.487,236.086z"/>
			<path fill="#282928" d="M257.715,234.409v-12.726l4.733-0.492l14.011-46.767l-4.836-0.59v-12.728h36.798l17.366,60.083
				l4.931,0.492v12.727h-28.707v-12.727l3.946-0.395l-1.379-5.032h-20.816l-1.384,5.032l3.945,0.395v12.727L257.715,234.409
				L257.715,234.409z M296.786,183.505c-0.992-3.552-1.582-7.894-2.27-11.246h-0.691c-0.596,3.353-1.287,7.594-2.269,11.246
				l-5.232,19.335h15.783L296.786,183.505z"/>
			<path fill="#282928" d="M398.583,161.109v12.728l-4.936,0.493l-17.067,60.079h-28.216l-17.068-60.079l-4.834-0.493v-12.728
				h27.726v12.728l-3.651,0.394l9.177,35.613c1.085,4.342,1.971,9.471,2.662,13.418h0.197c0.794-4.046,1.58-9.177,2.666-13.418
				l9.274-35.613l-3.652-0.394v-12.728H398.583z"/>
			<path fill="#282928" d="M434.67,236.086c-19.043,0-31.968-9.077-31.968-34.727v-7.202c0-25.748,13.022-34.726,31.968-34.726
				c18.84,0,31.861,8.978,31.861,34.726v7.202C466.531,227.009,453.61,236.086,434.67,236.086z M448.38,194.157
				c0-15.092-4.932-20.025-13.71-20.025c-8.785,0-13.816,4.934-13.816,20.025v7.202c0,15.392,5.135,20.026,13.816,20.026
				c8.581,0,13.71-4.637,13.71-20.026V194.157z"/>
			<path fill="#282928" d="M473.722,234.409v-12.726l4.638-0.492V174.33l-4.638-0.493v-12.728
				c8.587-0.493,18.546-0.888,29.006-0.888c18.349,0,33.938,3.551,33.938,23.774v0.593c0,10.753-4.337,16.672-11.639,20.225
				l10.062,16.379l5.327,0.492v12.727h-17.663l-14.99-26.043c-1.385,0.098-3.354,0.098-4.837,0.098h-6.808v12.729l4.636,0.492
				v12.727L473.722,234.409L473.722,234.409z M518.807,184.292c0-8.188-4.73-9.962-15.588-9.962h-7.102v20.913
				c2.466,0.099,4.833,0.099,7.399,0.099c10.85,0,15.288-2.564,15.288-10.456L518.807,184.292L518.807,184.292z"/>
			<path fill="#282928" d="M598.804,174.427l-17.066,32.656v14.501l4.638,0.591v12.234H558.85v-12.234l4.938-0.591v-14.402
				l-17.167-32.753l-4.836-0.59V161.11h17.266l9.272,19.14c1.58,3.354,3.455,7.696,4.341,10.853h0.298
				c0.984-3.156,2.764-7.597,4.338-10.853l9.275-19.14h17.168v12.728L598.804,174.427z"/>
		</g>
		<g opacity="0.4">
			<path fill="#020202" d="M210.272,226.758c3.749,0.197,7.395,0.197,10.947,0.197c7.894,0,11.35-2.365,11.35-7.793
				c0-0.822-0.105-1.533-0.29-2.199c-0.924,3.795-4.391,5.51-11.06,5.51c-3.552,0-7.198,0-10.947-0.197l-0.988-5.918h-11.149v4.483
				h11.149L210.272,226.758z"/>
			<path fill="#020202" d="M233.058,192.086l-10.258-4.538c-5.019-2.245-7.242-3.702-8.026-5.867
				c-0.215,0.644-0.359,1.341-0.359,2.162c0,3.651,1.779,5.229,8.385,8.188l10.258,4.539c10.99,4.811,16.814,9.362,17.681,19.046
				c0.044-0.651,0.175-1.241,0.175-1.925C250.914,202.15,244.995,197.314,233.058,192.086z"/>
			<path fill="#020202" d="M224.871,163.914c9.668,0,19.433,1.581,23.68,2.566v-4.484c-4.247-0.984-14.012-2.564-23.68-2.564
				c-18.548,0-28.61,5.821-28.61,20.421c0,0.873,0.114,1.644,0.187,2.447C197.403,169.263,207.251,163.914,224.871,163.914z"/>
			<polygon fill="#020202" points="286.324,207.324 302.107,207.324 300.873,202.84 287.537,202.84 			"/>
			<polygon fill="#020202" points="308.422,161.109 271.624,161.109 271.624,165.595 308.422,165.595 325.788,225.673 
				330.718,226.167 330.718,221.684 325.788,221.191 			"/>
			<polygon fill="#020202" points="304.763,221.41 302.012,221.684 302.012,226.167 305.958,225.773 			"/>
			<polygon fill="#020202" points="286.324,226.167 286.324,221.684 283.578,221.41 282.379,225.773 			"/>
			<polygon fill="#020202" points="276.459,178.911 275.163,178.754 262.448,221.191 257.715,221.684 257.715,226.167 
				262.448,225.673 			"/>
			<path fill="#020202" d="M359.714,214.325c1.085,4.345,1.971,9.473,2.662,13.419h0.197c0.794-4.043,1.58-9.174,2.666-13.419
				l9.274-35.611l-1.138-0.123l-8.136,31.253c-1.086,4.241-1.872,9.372-2.666,13.418h-0.197c-0.691-3.947-1.577-9.076-2.662-13.418
				l-8.059-31.25l-1.119,0.12L359.714,214.325z"/>
			<rect x="370.86" y="161.109" fill="#020202" width="27.723" height="4.485"/>
			<rect x="326.462" y="161.109" fill="#020202" width="27.726" height="4.485"/>
			<path fill="#020202" d="M434.67,221.389c-8.684,0-13.816-4.638-13.816-20.027v4.482c0,15.393,5.135,20.027,13.816,20.027
				c8.581,0,13.71-4.637,13.71-20.027v-4.482C448.38,216.751,443.251,221.389,434.67,221.389z"/>
			<path fill="#020202" d="M434.67,159.432c-18.943,0-31.968,8.978-31.968,34.726v4.483c0-25.748,13.022-34.727,31.968-34.727
				c18.84,0,31.861,8.979,31.861,34.727v-4.483C466.531,168.409,453.51,159.432,434.67,159.432z"/>
			<path fill="#020202" d="M503.519,195.342c-2.566,0-4.936,0-7.399-0.099v4.483c2.466,0.099,4.833,0.099,7.399,0.099
				c10.85,0,15.288-2.563,15.288-10.456v-0.594c0-0.704-0.082-1.299-0.148-1.911C517.9,193.177,513.378,195.342,503.519,195.342z"/>
			<path fill="#020202" d="M536.562,186.481c0.033-0.631,0.101-1.227,0.101-1.893v-0.593c0-20.224-15.589-23.774-33.938-23.774
				c-10.46,0-20.419,0.395-29.006,0.888v4.485c8.587-0.496,18.546-0.89,29.006-0.89
				C520.441,164.705,535.534,168.062,536.562,186.481z"/>
			<polygon fill="#020202" points="500.753,226.167 500.753,221.684 496.117,221.191 496.117,225.673 			"/>
			<polygon fill="#020202" points="478.357,221.191 473.722,221.684 473.722,226.167 478.357,225.673 			"/>
			<path fill="#020202" d="M527.079,208.15c-0.665,0.398-1.331,0.795-2.055,1.146l10.062,16.375l5.327,0.494v-4.481l-5.327-0.492
				L527.079,208.15z"/>
			<polygon fill="#020202" points="586.373,226.66 586.373,222.175 581.735,221.584 581.735,226.068 			"/>
			<polygon fill="#020202" points="563.784,221.584 558.849,222.175 558.849,226.66 563.784,226.068 			"/>
			<path fill="#020202" d="M586.571,161.109l-9.275,19.14c-1.574,3.256-3.354,7.696-4.338,10.853h-0.298
				c-0.886-3.156-2.761-7.498-4.341-10.853l-9.272-19.14h-17.266v4.485h17.266l9.272,19.138c1.58,3.354,3.455,7.695,4.341,10.853
				h0.298c0.984-3.157,2.764-7.597,4.338-10.853l9.275-19.138h17.168v-4.485H586.571z"/>
		</g>
	</g>
</g>
<g id="Giantnerd" display="none">
	<rect y="-50" display="inline" fill="#393939" width="800" height="500"/>
	<g display="inline">
		<g>
			<g>
				<path fill="#FFFFFF" d="M569.254,162.735c-1.75-1.67-6.34-6.171-15.895-6.171c-9.346,0-18.369,4.646-23.195,13.151v-13.151
					c-9.359,0-12.184,4.775-13.551,7.301h-0.189v-5.523h-15.213v12.376c-5.053-8.308-14.932-14.146-24.898-14.146
					c-11.338,0-20.615,5.803-25.15,14.699c-1.07-5.6-3.484-8.383-5.682-10.205c-2.922-2.436-8.686-4.501-13.85-4.501
					c-9.65,0-13.061,4.775-14.717,7.301h-0.193v-5.523h-15.117v51.944h16.188V182.03c0-3.185,0-10.864,9.26-10.864
					c8.484,0,8.484,7.12,8.484,10.765v28.356h16.184v-13.034c1.281,2.366,2.857,4.542,4.662,6.312
					c5.094,5.192,13.105,8.418,20.791,8.418c8.344,0,14.594-2.396,20.797-8.227v-17.04c-4.438,6.555-12.018,11.131-18.631,11.131
					c-4.762,0-7.578-0.728-10.82-3.018l32.695-17.729v33.188h16.186v-28.543c0-7.411,4.686-9.165,11.504-9.5
					c-1.49,3.467-2.352,7.452-2.352,11.938c0,15.626,10.727,27.793,27.104,27.793c10.924,0,14.816-5.151,16.188-7.308h0.195v5.617
					h15.403V141.03h-16.188V162.735L569.254,162.735z M463.094,185.469c-0.533-1.554-0.533-1.874-0.533-3.526
					c0-6.038,6.168-11.755,12.773-11.755c3.682,0,6.273,1.147,8.881,3.748L463.094,185.469z M556.293,197.467
					c-7.611,0-13.561-5.331-13.561-13.387c0-5.987,4.396-13.007,13.75-13.007c8.967,0,13.646,6.741,13.646,13.007
					C570.129,189.509,566.432,197.467,556.293,197.467z"/>
				<path fill="#FFFFFF" d="M268.074,141.03h-16.189v11.792h16.189V141.03z M309.703,163.868h-0.193
					c-1.955-3.179-6.928-7.304-15.796-7.304c-11.454,0-21.843,6.743-25.639,18.03v-16.247h-16.189v12.539h-42.11v14.135h21.549
					c-1.947,6.737-8.09,11.136-17.258,11.136c-9.069,0-19.789-6.275-19.789-20.773c0-13.67,10.633-20.132,19.687-20.132
					c7.805,0,13.068,4.122,15.893,8.992h20.673c-3.999-13.387-18.815-24.526-36.074-24.526c-21.249,0-38.609,14.977-38.609,35.666
					c0,19.93,16.478,36.312,38.317,36.312c17.569,0,34.003-10.773,37.721-29.146v27.739h16.189V194.01
					c3.412,10.362,12.395,18.064,25.639,18.064c6.34,0,13.059-2.348,15.796-7.395h0.193v5.604h16.179v-51.938h-16.179V163.868z
					 M296.149,197.561c-9.747,0-13.459-8.236-13.459-13.107c0-5.889,4.103-13.38,13.364-13.38c9.158,0,13.648,6.921,13.648,13.199
					C309.703,189.324,306.292,197.561,296.149,197.561z M398.651,158.348V141.03h-16.18v17.317h-8.001v4.128
					c-0.497-0.538-1.013-1.006-1.511-1.41c-2.924-2.436-8.674-4.501-13.837-4.501c-9.65,0-13.064,4.779-14.723,7.304h-0.197v-5.521
					H329.09v51.938h16.188v-28.257c0-3.185,0-10.864,9.26-10.864c8.489,0,8.489,7.12,8.489,10.765v28.356h16.179v-32.47
					c0-3.077-0.303-5.588-0.805-7.68h4.071v40.149h16.18v-40.149h2.951v-11.789h-2.952V158.348z"/>
				<g>
					<path fill="#FFFFFF" d="M624.154,157.005c0,9.836-7.986,17.829-17.729,17.829c-9.799,0-17.781-8.034-17.781-17.829
						c0-9.56,7.712-17.828,17.875-17.828C616.363,139.177,624.154,147.395,624.154,157.005z M592.5,157.005
						c0,7.891,6.314,14.255,13.926,14.255c7.607,0,13.881-6.27,13.881-14.255c0-7.655-5.984-14.248-13.828-14.248
						C598.582,142.757,592.5,149.203,592.5,157.005z M607.162,146.929c3.812,0,7.25,1.579,7.25,5.579
						c0,1.624-0.561,3.562-3.203,4.774c1.438,0.607,2.645,1.571,2.824,4.596c0.236,3.438,0.236,3.812,0.607,4.831h-4.781
						c-0.367-0.693-0.555-4.084-0.65-4.741c-0.143-1.111-0.41-2.87-3.521-2.87h-1.961v7.611h-4.912v-19.78H607.162L607.162,146.929z
						 M603.727,150.319v5.57h2.383c1.016,0,3.385,0,3.385-3.014c0-2.508-2.088-2.557-3.117-2.557L603.727,150.319L603.727,150.319z"
						/>
				</g>
			</g>
		</g>
		<g>
			<g>
				<g>
					<g>
						<path fill="#F399C0" d="M306.92,235.594h6.354c3.592,0,4.929,0.543,5.982,1.401c1.521,1.247,2.281,3.142,2.281,5.089
							c0,1.943-0.816,3.998-2.049,5.041c-1.333,1.111-2.64,1.657-5.664,1.657h-2.159v6.021h-4.746L306.92,235.594L306.92,235.594z
							 M311.666,244.473h2.023c0.946,0,3.103,0,3.103-2.312c0-2.257-2.211-2.257-3.282-2.257h-1.844V244.473z"/>
						<path fill="#F399C0" d="M329.543,239.927c5.306,0,7.851,4.13,7.851,7.663c0,3.531-2.545,7.665-7.851,7.665
							c-5.309,0-7.854-4.134-7.854-7.665C321.689,244.057,324.234,239.927,329.543,239.927z M329.543,251.225
							c1.888,0,3.487-1.529,3.487-3.635c0-2.107-1.6-3.634-3.487-3.634c-1.899,0-3.491,1.524-3.491,3.634
							C326.052,249.693,327.645,251.225,329.543,251.225z"/>
						<path fill="#F399C0" d="M341.929,240.4l2.172,8.955h0.054l2.392-8.955h3.677l2.416,8.955h0.055l2.178-8.955h4.488
							l-4.462,14.401h-4.043l-2.437-9.321h-0.058l-2.447,9.321h-4.037L337.41,240.4H341.929z"/>
						<path fill="#F399C0" d="M374.105,250.29c-0.708,1.61-1.735,2.856-2.968,3.683c-1.2,0.86-2.648,1.297-4.138,1.297
							c-4.181,0-7.729-3.342-7.729-7.633c0-4.023,3.206-7.732,7.646-7.732c4.431,0,7.687,3.474,7.687,7.865
							c0,0.569-0.048,0.81-0.103,1.144h-10.92c0.266,1.712,1.709,2.726,3.419,2.726c1.339,0,2.041-0.593,2.649-1.347L374.105,250.29
							L374.105,250.29z M370.246,246.002c-0.179-0.852-1.049-2.471-3.311-2.471c-2.252,0-3.117,1.619-3.308,2.471H370.246z"/>
						<path fill="#F399C0" d="M376.46,240.4h4.1v1.523h0.055c0.361-0.695,1.123-2.021,3.642-2.021v4.338
							c-2.015,0.044-3.431,0.468-3.431,2.646v7.919h-4.366V240.4z"/>
						<path fill="#F399C0" d="M399.431,250.29c-0.706,1.61-1.733,2.856-2.967,3.683c-1.206,0.86-2.648,1.297-4.145,1.297
							c-4.173,0-7.722-3.342-7.722-7.633c0-4.023,3.208-7.732,7.643-7.732c4.438,0,7.693,3.474,7.693,7.865
							c0,0.569-0.054,0.81-0.107,1.144h-10.921c0.26,1.712,1.709,2.726,3.414,2.726c1.339,0,2.049-0.593,2.653-1.347L399.431,250.29
							L399.431,250.29z M395.571,246.002c-0.175-0.852-1.047-2.471-3.302-2.471c-2.259,0-3.125,1.619-3.315,2.471H395.571z"/>
						<path fill="#F399C0" d="M416.99,254.805h-4.146v-1.549h-0.057c-0.367,0.592-1.414,2.014-4.359,2.014
							c-4.407,0-7.297-3.369-7.297-7.705c0-4.881,3.516-7.66,7.221-7.66c2.57,0,3.805,1.246,4.279,1.714v-6.021h4.357
							L416.99,254.805L416.99,254.805z M409.139,251.247c2.73,0,3.729-2.206,3.729-3.712c0-1.739-1.264-3.607-3.668-3.607
							c-2.521,0-3.697,1.951-3.697,3.607C405.5,249.766,407.098,251.247,409.139,251.247z"/>
						<path fill="#F399C0" d="M428.244,235.594h4.355v5.941c1.549-1.633,3.623-1.633,4.229-1.633c3.049,0,7.17,2.156,7.17,7.607
							c0,5.192-3.65,7.788-7.355,7.788c-2.051,0-3.627-0.983-4.174-2.022h-0.053v1.526h-4.174L428.244,235.594L428.244,235.594z
							 M435.984,251.273c2.234,0,3.648-1.795,3.648-3.686c0-1.875-1.414-3.662-3.564-3.662c-2.309,0-3.623,1.844-3.623,3.637
							C432.445,249.561,433.812,251.273,435.984,251.273z"/>
						<path fill="#F399C0" d="M458.854,240.4l-7.301,19.213h-4.621l2.312-5.534l-5.406-13.679h4.648l2.906,8.354h0.055l2.787-8.354
							H458.854L458.854,240.4z"/>
						<path fill="#F399C0" d="M468.869,235.594h4.965v14.9h5.746v4.311h-10.711V235.594z"/>
						<path fill="#F399C0" d="M489.035,239.927c5.297,0,7.852,4.13,7.852,7.663c0,3.531-2.555,7.665-7.852,7.665
							c-5.311,0-7.855-4.134-7.855-7.665C481.18,244.057,483.727,239.927,489.035,239.927z M489.035,251.225
							c1.887,0,3.486-1.529,3.486-3.635c0-2.107-1.602-3.634-3.486-3.634c-1.893,0-3.498,1.524-3.498,3.634
							C485.537,249.693,487.145,251.225,489.035,251.225z"/>
						<path fill="#F399C0" d="M506.83,254.805h-4.172L497.43,240.4h4.521l2.781,8.979h0.059l2.777-8.979h4.514L506.83,254.805z"/>
						<path fill="#F399C0" d="M526.57,250.29c-0.707,1.61-1.73,2.856-2.971,3.683c-1.205,0.86-2.646,1.297-4.146,1.297
							c-4.172,0-7.715-3.342-7.715-7.633c0-4.023,3.201-7.732,7.633-7.732c4.441,0,7.693,3.474,7.693,7.865
							c0,0.569-0.051,0.81-0.104,1.144h-10.93c0.268,1.712,1.709,2.726,3.42,2.726c1.342,0,2.041-0.593,2.646-1.347L526.57,250.29
							L526.57,250.29z M522.717,246.002c-0.189-0.852-1.057-2.471-3.316-2.471c-2.254,0-3.115,1.619-3.309,2.471H522.717z"/>
						<path fill="#F399C0" d="M534.672,237.303v1.172h-2.281v5.892h-1.424v-5.892h-2.254v-1.172H534.672z M542.393,244.363
							l-0.26-4.156c-0.033-0.54-0.033-1.219-0.053-1.965h-0.084c-0.182,0.619-0.414,1.451-0.607,2.101l-1.275,3.921h-1.471
							l-1.283-4.022c-0.143-0.519-0.344-1.377-0.5-1.997h-0.082c0,0.646-0.027,1.32-0.059,1.965l-0.264,4.157h-1.363l0.525-7.062
							h2.121l1.244,3.455c0.182,0.543,0.283,1.064,0.475,1.793h0.012c0.199-0.625,0.357-1.248,0.516-1.742l1.229-3.506h2.052
							l0.546,7.062h-1.417L542.393,244.363L542.393,244.363z"/>
					</g>
				</g>
				<path fill="#F399C0" d="M286.423,231.584c-4.888,0-8.955,3.422-9.988,7.991c-1.03-4.569-5.109-7.991-9.99-7.991
					c-5.665,0-10.252,4.594-10.252,10.255c0,11.945,20.242,19.984,20.242,19.984s20.239-8.039,20.239-19.984
					C296.674,236.178,292.08,231.584,286.423,231.584z"/>
			</g>
		</g>
	</g>
</g>
<g id="Tommaso" display="none">
	<rect y="-50" display="inline" width="800" height="500"/>
	<g display="inline">
		<g>
			<path fill="#FFFFFF" d="M383.261,155.995l-14.648,0.068l-4.743,8.194c0,0-0.077,0.272-0.727,0.841
				c-0.644,0.673-2.592,0.936-3.887,0.922l-0.73,0.026l0.017,0.052c-1.34-0.068-3.088-0.329-3.635-0.941
				c-0.597-0.644-0.678-0.941-0.678-0.941l-4.873-8.124l-14.68,0.084l6.173,12.228l17.71-0.053l0.007,0.022l18.713-0.139
				L383.261,155.995z M340.896,172.52l0.017,6.218c-3.977-4.855-9.507-7.741-16.471-7.733c-7.807-0.031-14.47,3.395-18.85,9.108
				c-4.579-5.581-11.203-8.975-19.333-8.975c-15.884,0.077-25.505,9.869-26.653,24.742c-3.694-14.502-16.184-24.611-31.019-24.529
				c-17.601-0.008-31.863,14.5-31.816,33.465c0.067,18.957,14.37,33.035,32.018,32.959c14.576,0.015,26.959-9.756,30.746-23.981
				l0.039,22.458l16.278-0.113l-0.087-37.032c-0.07-3.677,1.138-12.499,11.746-12.605c7.299-0.036,12.369,5.413,12.396,12.491
				l0.095,37.039l16.356-0.029l-0.182-37.034c0.013-3.705,1.129-12.527,11.905-12.625c7.081,0.002,12.164,5.417,12.166,12.563
				l0.196,37.041l16.353-0.015l-0.287-63.495L340.896,172.52z M228.798,222.927c-8.682,0.052-15.656-7.362-15.727-18.056
				c-0.104-11.006,6.87-18.638,15.509-18.671c8.654-0.035,15.702,7.591,15.807,18.505
				C244.375,215.566,237.424,222.884,228.798,222.927z M605.779,169.902c-12.744,0.088-23.705,7.75-28.777,19.184
				c-2.455-11.409-13.096-19.009-27.342-18.907c-18.361,0.046-27.049,10.455-26.965,20.395c0.01,14.214,15.15,17.148,26.467,18.9
				c11.086,1.707,13.314,3.127,13.363,6.648c0.01,3.706-4.943,5.825-11.488,5.734c-4.816,0.086-11.27-1.93-13.533-7.291l-14.9,0.062
				l-0.158-42.825l-15.555,0.066l0.094,6.818c-4.992-5.151-11.666-8.087-19.58-8.057c-13.32,0.017-24.74,9.389-28.623,22.914
				c-1.822-13.892-11.299-22.994-26.619-23.005c-8.098,0.077-14.785,3.556-19.336,9.106c-4.42-5.634-11.123-9.012-18.954-8.896
				c-6.926-0.064-12.435,2.904-16.345,7.761l-0.032-6.173l-15.694,0.033l0.336,63.485l16.338-0.09l-0.094-37.023
				c-0.091-7.085,4.957-12.583,12.057-12.616c10.77,0.007,11.881,8.795,11.885,12.476l0.152,37.119l16.363-0.061l-0.102-37.063
				c-0.104-7.154,5.032-12.529,12.264-12.603c10.545-0.023,11.828,8.782,11.814,12.533l0.156,37.057l16.201-0.1l-0.041-20.569
				c4.215,13.006,15.521,21.837,28.572,21.817c7.641-0.032,14.545-3.037,19.438-8.16v6.721l15.533,0.014l-0.045-14.826
				c4.172,10.121,14.785,16.239,28.5,16.149c13.994-0.081,24.48-6.71,27.062-16.627c5.521,10.044,15.947,16.479,27.828,16.437
				c17.59-0.113,32.066-14.287,31.997-33.229C637.902,184.178,623.441,169.911,605.779,169.902z M490.096,221.743
				c-8.979,0.04-16.238-7.731-16.32-17.854c0.01-10.272,7.215-18.208,16.16-18.249c9.01-0.048,16.322,8.081,16.326,18.119
				C506.342,213.706,499.047,221.671,490.096,221.743z M574.035,203.146c-4.76-4.333-12.719-6.208-22.336-7.736
				c-7.824-1.232-12.551-2.3-12.611-5.619c0.029-2.336,3.113-5.104,10.654-5.076c6.074-0.081,9.561,2.259,10.551,5.202l16.408-0.104
				C575.012,193.854,574.062,198.353,574.035,203.146z M606.016,221.518c-8.596-0.021-15.646-7.303-15.75-18.012
				c-0.064-10.968,6.904-18.608,15.611-18.656c8.66-0.066,15.648,7.532,15.721,18.53
				C621.615,214.057,614.637,221.542,606.016,221.518z M200.529,222.547c-8.182,0.053-11.731-5.917-11.742-11.725l-0.12-22.521
				l10.266-0.011l-0.003-15.195l-5.999-0.051l-4.319,0.052l-0.031-16.12l-16.21-0.021l0.105,16.219l-10.497,0.016l0.085,15.213
				l10.416-0.024l0.078,21.696c0.021,16.049,11.021,27.952,28.021,27.929c0.011-0.062,0.245-0.062,0.224-0.138l0.011-15.31
				C200.659,222.547,200.659,222.547,200.529,222.547z"/>
		</g>
	</g>
</g>
<g>
	<path fill="#FFFFFF" d="M340.998,92.833h-27.325v8.039h19.448c-0.949,11.272-10.328,16.08-19.18,16.08
		c-11.326,0-21.209-8.912-21.209-21.402c0-12.167,9.421-21.538,21.234-21.538c9.114,0,14.484,5.811,14.484,5.811l5.628-5.829
		c0,0-7.224-8.043-20.399-8.043c-16.778,0-29.758,14.16-29.758,29.456c0,14.987,12.209,29.602,30.185,29.602
		c15.811,0,27.383-10.83,27.383-26.846c0-3.378-0.49-5.331-0.49-5.331V92.833z"/>
	<path fill="#FFFFFF" d="M364.128,87.012c-11.116,0-19.082,8.69-19.082,18.826c0,10.285,7.727,19.136,19.213,19.136
		c10.397,0,18.916-7.947,18.916-18.916C383.175,93.486,373.266,87.012,364.128,87.012L364.128,87.012z M364.238,94.467
		c5.466,0,10.647,4.419,10.647,11.54c0,6.971-5.159,11.516-10.672,11.516c-6.058,0-10.837-4.852-10.837-11.571
		C353.376,99.378,358.096,94.467,364.238,94.467L364.238,94.467z"/>
	<path fill="#FFFFFF" d="M405.394,87.012c-11.115,0-19.081,8.69-19.081,18.826c0,10.285,7.727,19.136,19.212,19.136
		c10.397,0,18.917-7.947,18.917-18.916C424.441,93.486,414.532,87.012,405.394,87.012L405.394,87.012z M405.504,94.467
		c5.467,0,10.646,4.419,10.646,11.54c0,6.971-5.158,11.516-10.671,11.516c-6.058,0-10.837-4.852-10.837-11.571
		C394.643,99.378,399.362,94.467,405.504,94.467L405.504,94.467z"/>
	<path fill="#FFFFFF" d="M446.1,87.031c-10.203,0-18.223,8.937-18.223,18.966c0,11.426,9.297,19.002,18.047,19.002
		c5.41,0,8.286-2.148,10.41-4.613v3.743c0,6.549-3.977,10.47-9.979,10.47c-5.797,0-8.706-4.31-9.716-6.757l-7.295,3.051
		c2.588,5.472,7.798,11.178,17.071,11.178c10.146,0,17.877-6.39,17.877-19.79V87.704h-7.959v3.685
		C453.888,88.751,450.54,87.032,446.1,87.031L446.1,87.031z M446.838,94.472c5.002,0,10.14,4.271,10.14,11.566
		c0,7.414-5.126,11.5-10.25,11.5c-5.439,0-10.5-4.416-10.5-11.43C436.228,98.821,441.483,94.472,446.838,94.472L446.838,94.472z"/>
	<path fill="#FFFFFF" d="M498.974,86.986c-9.624,0-17.705,7.657-17.705,18.956c0,11.956,9.007,19.046,18.63,19.046
		c8.03,0,12.96-4.393,15.901-8.33l-6.562-4.366c-1.702,2.642-4.549,5.225-9.3,5.225c-5.335,0-7.789-2.922-9.31-5.753l25.452-10.561
		l-1.321-3.095c-2.458-6.061-8.194-11.122-15.783-11.122L498.974,86.986z M499.305,94.286c3.469,0,5.964,1.844,7.023,4.055
		l-16.996,7.104C488.6,99.945,493.811,94.286,499.305,94.286L499.305,94.286z"/>
	<rect x="469.604" y="67.914" fill="#FFFFFF" width="7.797" height="55.949"/>
</g>
<g>
	<path fill="#FFFFFF" d="M512.621,260.232l-0.002,0.004L512.621,260.232c-0.001,0.001-0.427-0.059-0.717-0.059
		c-1.649,0-3.283,0.967-3.283,3.438c-0.978,12.401-1.996,24.84-3.67,36.675l-0.008,0.008c0.003,0,0.004,0,0.007-0.002v0.002
		l0.008-0.002c1.012-0.175,1.798,0.09,2.561,0.396l-0.004-0.006c1.901-12.021,6.416-30.025,7.571-35.121
		c0.166-0.717,0.414-1.564,0.414-2.166C515.5,261.578,514.348,260.521,512.621,260.232z"/>
	<path fill="#FFFFFF" d="M393.23,265.126c0.333,6.405,0.511,12.815,0.536,19.231c-7.686,0.179-15.365,0.193-23.035,0l-0.002,0.001
		c0.024-6.416,0.203-12.827,0.536-19.232c-2.249,0.543-4.538,0.558-6.868,0c0.598,13.761,0.546,27.493,0,41.207
		c2.23-0.537,4.515-0.561,6.86,0l-0.014-0.008l0.022,0.008c-0.338-6.394-0.514-12.783-0.536-19.166l0.002,0.001
		c7.678-0.106,15.356-0.112,23.035-0.009c-0.022,6.387-0.197,12.777-0.536,19.174l0.022-0.008l-0.014,0.008
		c2.345-0.561,4.629-0.537,6.859,0c-0.546-13.714-0.598-27.446,0-41.207C397.768,265.684,395.479,265.669,393.23,265.126z"/>
	<path fill="#FFFFFF" d="M344.24,265.112l-0.004,0.001L344.24,265.112c-1.709,0.596-3.103,0.562-4.781,0.001l-0.008-0.005
		c-5.531,13.879-11.903,29.543-17.633,41.225l0,0l-0.001,0.005l0.024-0.01c-0.007,0.001-0.015,0.002-0.021,0.005l0.044-0.016
		l-0.023,0.011c2.62-0.65,5.121-0.449,6.774-0.001c-0.004-0.003-0.008-0.006-0.012-0.007l0.009,0.003
		c1.461-3.692,3.125-7.875,4.79-12.082l0.008,0.005c5.631-0.161,11.263-0.183,16.894,0l0.001-0.001
		c1.601,4.027,3.207,8.06,4.772,12.092l0,0.001c2.51-0.655,5.007-0.477,6.852-0.011l-0.005-0.003
		C357.793,298.613,349.506,278.439,344.24,265.112z M341.841,272.218c2.277,6.348,4.78,12.742,7.325,19.156l-0.014-0.005
		c-4.871,0.168-9.741,0.171-14.611,0l-0.004,0.001C337.517,283.811,340.347,276.518,341.841,272.218z"/>
	<path fill="#FFFFFF" d="M331.762,259.632c-0.002,0.001-0.003,0.002-0.005,0.003l0.003-0.003c-2.474,0.562-4.706,0.58-6.921,0
		c-1.952,3.636-9.152,15.403-13.735,22.938c-4.648-7.697-10.151-16.586-13.736-22.938c-2.843,0.606-4.031,0.646-6.868,0
		c5.629,8.483,14.65,24.64,17.718,29.943l-0.412,22.114c0,0,1.979-0.331,3.303-0.331c1.466,0,3.291,0.331,3.291,0.331l-0.412-22.114
		C319.713,279.529,329.166,263.139,331.762,259.632z"/>
	<path fill="#FFFFFF" d="M424.293,264.57c-14.57,0-22.213,9.238-22.213,21.213c0,13.106,8.345,21.102,22.191,21.102
		c14.971,0,22.282-9.01,22.282-20.964C446.554,272.592,437.821,264.57,424.293,264.57z M424.337,304.549
		c-9.713,0-15.419-6.959-15.419-18.696c0-13.276,7.032-18.62,15.02-18.784c0.127-0.003,0.255,0,0.381,0
		c8.91,0,15.453,6.068,15.453,18.749C439.771,298.481,433.236,304.549,424.337,304.549z"/>
	<path fill="#FFFFFF" d="M474.592,262.089c-14.51,0-25.601,8.239-25.601,23.558c0,12.62,7.377,23.727,25.72,23.727
		c15.529,0,25.669-8.537,25.669-23.504C500.38,271.755,490.921,262.089,474.592,262.089z M455.851,285.556
		c0-16.132,9.921-20.904,18.758-20.904c10.896,0,18.921,6.619,18.921,21.218c0,15.869-9.707,21.016-18.904,21.016
		C464.802,306.885,455.851,301.118,455.851,285.556z"/>
	<path fill="#FFFFFF" d="M504.738,305.27c-2.161,0-3.238,1.648-3.238,3.421c0,2.09,1.669,3.16,3.732,3.16
		c1.492,0,3.121-0.907,3.121-3.368C508.354,306.507,506.807,305.27,504.738,305.27z"/>
</g>
<path fill="#FFFFFF" d="M343.866,199.856h22.026c3.098-1.121,5.34-3.308,5.975-5.89h-33.978
	C338.521,196.549,340.779,198.735,343.866,199.856 M286.58,182.449c0.662,2.582,2.903,4.728,5.965,5.878h9.267l0.476,0.191v23.384
	h5.789v-23.384l0.527-0.191h9.278c3.037-1.15,5.287-3.296,5.938-5.878v-0.062h-37.24V182.449z M343.866,211.854h22.026
	c3.098-1.143,5.34-3.316,5.975-5.912h-33.978C338.521,208.538,340.779,210.712,343.866,211.854 M343.866,188.409h22.026
	c3.098-1.156,5.34-3.31,5.975-5.918h-33.978C338.521,185.1,340.779,187.253,343.866,188.409 M489.672,188.286h22.026
	c3.083-1.152,5.258-3.207,5.882-5.814h-33.977C484.216,185.079,486.588,187.134,489.672,188.286 M463.019,211.671
	c2.848-1.206,4.389-3.338,4.979-5.783h-25.409l0.021-23.47l-5.694,0.018v29.168L463.019,211.671z M394.109,188.225h20.327
	c3.059-0.884,5.313-3.187,5.939-5.775h-31.966v17.391h26.427v6.116h-20.455c-3.012,1.155-5.24,3.134-5.864,5.706l-0.108,0.24h32.114
	v-17.849h-26.415V188.225z M484.712,193.912v17.868h5.694v-11.897h20.72v11.897h5.687v-17.835L484.712,193.912z"/>
<g>
	<path fill="#FFFFFF" d="M329.228,376.871v24.931c0,8.321-3.686,11.78-12.326,11.78c-8.645,0-12.331-3.459-12.331-11.78v-26.022
		h-8.321c-0.73,0-1.094,0.366-1.094,1.092v25.339c0,13.917,8.873,18.785,21.747,18.785c12.869,0,21.742-4.868,21.742-18.785v-26.431
		h-8.324C329.592,375.779,329.228,376.146,329.228,376.871"/>
	<path fill="#FFFFFF" d="M449.903,383.013c0.683,0,1.004-0.228,1.231-0.728l2.408-5.957c0.14-0.364,0-0.549-0.363-0.549h-33.528
		c-3.136,0-4.317,0.955-4.317,3.095v38.71c0,1.822,0.908,2.64,3.32,2.64h31.249c0.683,0,1.004-0.228,1.231-0.728l2.408-5.961
		c0.14-0.364,0-0.544-0.363-0.544h-28.611v-7.869c0-2.73,1.5-3.961,5.548-3.961h12.418c0.685,0,1-0.227,1.229-0.726l2.318-5.732
		c0.139-0.364,0-0.546-0.361-0.546h-21.152v-11.145H449.903z"/>
	<path fill="#FFFFFF" d="M390.885,396.795c3.638-1.909,5.142-5.503,5.142-9.733c0-9.827-8.008-11.282-16.286-11.282h-18.924
		c-3.14,0-4.32,0.955-4.32,3.095v38.712c0,1.817,0.908,2.638,3.32,2.638h23.29c8.778,0,15.057-3.411,15.057-12.282
		C398.164,402.618,395.889,398.115,390.885,396.795 M365.724,382.921h14.7c4.913,0,6.277,1.852,6.277,5.687
		c0,3.836-1.364,5.688-6.277,5.688h-14.7V382.921z M382.153,413.081h-16.429v-8.144c0-2.728,1.505-3.956,5.553-3.956h10.876
		c5.229,0,6.686,2.003,6.686,6.096S387.382,413.081,382.153,413.081"/>
	<path fill="#FFFFFF" d="M511.656,419.45l-9.963-17.104c4.959-1.274,8.962-4.548,8.962-12.874c0-10.78-6.688-13.692-17.742-13.692
		h-19.014c-3.14,0-4.323,0.955-4.323,3.095v40.257c0,0.727,0.364,1.093,1.093,1.093h8.142V407.26c0-2.731,1.501-3.958,5.551-3.958
		h8.188l9.007,16.194c0.273,0.453,0.545,0.728,1.23,0.728h8.459C511.838,420.224,511.838,419.725,511.656,419.45 M494.277,396.386
		h-15.467v-13.462h15.467c5.778,0,7.052,2.228,7.052,6.729C501.329,394.204,500.056,396.386,494.277,396.386"/>
</g>
</svg>
