<?xml version="1.0" encoding="utf-8"?>
<!-- Generator: Adobe Illustrator 16.0.4, SVG Export Plug-In . SVG Version: 6.00 Build 0)  -->
<!DOCTYPE svg PUBLIC "-//W3C//DTD SVG 1.1//EN" "http://www.w3.org/Graphics/SVG/1.1/DTD/svg11.dtd">
<svg version="1.1" id="Layer_1" xmlns="http://www.w3.org/2000/svg" xmlns:xlink="http://www.w3.org/1999/xlink" x="0px" y="0px"
	 width="200px" height="4350px" viewBox="-25.5 2247.5 200 4350" enable-background="new -25.5 2247.5 200 4350"
	 xml:space="preserve">
<g>
	<path fill="#4AB973" d="M122.48,6516.352c0.138,1.656,0.138,3.312,0.138,4.968c0,30.223-19.182,49.681-45.402,49.681
		c-30.912,0-52.716-22.08-52.716-51.889c0-29.945,22.356-51.611,52.716-51.611c15.278,0,28.293,6.158,38.565,18.356
		c0.491,0.583,1.263,1.956,0.106,2.787s-10.771,7.718-11.647,8.594s-2.245-0.353-2.77-0.946
		c-5.846-6.623-12.639-10.575-23.15-10.575c-19.458,0-32.154,13.109-32.154,33.396c0,20.148,13.11,33.396,31.74,33.396
		c13.938,0,23.322-7.313,23.322-17.664c0-0.414,0-0.69,0-1.104H77.492v-17.389H122.48z"/>
</g>
<g>
	<path fill="#4AB973" d="M122.48,6366.352c0.139,1.656,0.139,3.312,0.139,4.968c0,30.223-19.182,49.681-45.403,49.681
		c-30.912,0-52.716-22.08-52.716-51.889c0-29.945,22.356-51.611,52.716-51.611c14.831,0,27.528,5.803,37.655,17.3
		c0.306,0.347,1.976,3.136-0.044,4.606c-2.096,1.525-6.554,4.661-8.958,6.535c-2.26,1.762-4.902-0.215-5.157-0.489
		c-5.678-6.116-12.332-9.735-22.392-9.736c-19.458,0-32.154,13.109-32.154,33.396c0,20.148,13.11,33.396,31.74,33.396
		c13.938,0,23.322-7.313,23.322-17.664c0-0.414,0-0.69,0-1.104H77.492v-17.389H122.48z"/>
</g>
<g>
	<path fill="#4AB973" d="M122.48,6216.352c0.139,1.656,0.139,3.312,0.139,4.968c0,30.223-19.182,49.681-45.403,49.681
		c-30.912,0-52.716-22.08-52.716-51.889c0-29.945,22.356-51.611,52.716-51.611c12.977,0,24.251,4.518,33.737,13.256
		c5.422,4.994,3.647,8.836,1.379,10.444c-1.249,0.886-2.674,1.863-3.929,2.839c-3.217,2.5-6.403,2.086-11.383-2.07
		c-4.849-4.047-10.732-6.252-18.7-6.253c-19.458,0-32.154,13.109-32.154,33.396c0,20.148,13.11,33.396,31.74,33.396
		c13.938,0,23.322-7.313,23.322-17.664c0-0.414,0-0.69,0-1.104H77.492v-17.389H122.48z"/>
</g>
<g>
	<path fill="#4AB973" d="M122.48,6066.352c0.139,1.656,0.139,3.312,0.139,4.968c0,30.223-19.182,49.681-45.403,49.681
		c-30.912,0-52.716-22.08-52.716-51.889c0-29.945,22.356-51.611,52.716-51.611c11.748,0,22.03,3.789,30.993,10.887
		c4.458,3.53,8.046,9.971,3.142,13.524c-0.981,0.711-2.209,1.587-2.327,1.678c-4.502,3.44-8.523,1.078-13.358-2.681
		c-4.493-3.493-10.105-5.191-17.345-5.192c-19.458,0-32.154,13.109-32.154,33.396c0,20.148,13.11,33.396,31.74,33.396
		c13.938,0,23.322-7.313,23.322-17.664c0-0.414,0-0.69,0-1.104H77.492v-17.389H122.48z"/>
</g>
<g>
	<g>
		<path fill="#4AB973" d="M122.48,5916.352c0.139,1.656,0.139,3.312,0.139,4.968c0,30.223-19.182,49.681-45.403,49.681
			c-30.912,0-52.716-22.08-52.716-51.889c0-29.945,22.356-51.611,52.716-51.611c11.748,0,22.03,3.789,30.993,10.887
			c4.458,3.53,0.826,14.105,0.708,14.196c-4.502,3.44-8.417,2.084-13.251-1.675c-4.493-3.493-10.105-5.191-17.345-5.192
			c-19.458,0-32.154,13.109-32.154,33.396c0,20.148,13.11,33.396,31.74,33.396c13.938,0,23.322-7.313,23.322-17.664
			c0-0.414,0-0.69,0-1.104H77.492v-17.389H122.48z"/>
	</g>
	<circle fill="#4AB973" cx="104.167" cy="5886.501" r="8.751"/>
</g>
<g>
	<g>
		<path fill="#4AB973" d="M122.48,5766.352c0.139,1.656,0.139,3.312,0.139,4.968c0,30.223-19.182,49.681-45.403,49.681
			c-30.912,0-52.716-22.08-52.716-51.889c0-29.945,22.356-51.611,52.716-51.611c10.87,0,20.486,3.244,28.963,9.352
			c0.685,0.493-5.679,17.815-10.513,14.057c-4.493-3.493-10.105-5.191-17.345-5.192c-19.458,0-32.154,13.109-32.154,33.396
			c0,20.148,13.11,33.396,31.74,33.396c13.938,0,23.322-7.313,23.322-17.664c0-0.414,0-0.69,0-1.104H77.492v-17.389H122.48z"/>
	</g>
	<circle fill="#4AB973" cx="100.917" cy="5733.876" r="8.751"/>
</g>
<g>
	<g>
		<path fill="#4AB973" d="M122.48,5616.352c0.139,1.656,0.139,3.312,0.139,4.968c0,30.223-19.182,49.681-45.403,49.681
			c-30.912,0-52.716-22.08-52.716-51.889c0-29.945,22.356-51.611,52.716-51.611c6.624,0,12.782,1.205,18.501,3.527
			c3.665,1.489-3.969,17.293-6.253,16.455c-3.225-1.184-6.904-1.766-11.144-1.767c-19.458,0-32.154,13.109-32.154,33.396
			c0,20.148,13.11,33.396,31.74,33.396c13.938,0,23.322-7.313,23.322-17.664c0-0.414,0-0.69,0-1.104H77.492v-17.389H122.48z"/>
	</g>
	<circle fill="#4AB973" cx="92.5" cy="5579.254" r="8.879"/>
</g>
<g>
	<path fill="#4AB973" d="M122.48,5466.352H77.492v17.389h23.736c0,0.413,0,0.689,0,1.104c0,10.351-9.385,17.664-23.322,17.664
		c-18.63,0-31.74-13.248-31.74-33.396c0-19.998,12.343-33.012,31.334-33.378v-18.227c-0.095-0.001-0.188-0.007-0.284-0.007
		c-30.359,0-52.716,21.666-52.716,51.611c0,29.809,21.804,51.889,52.716,51.889c26.222,0,45.403-19.458,45.403-49.681
		C122.619,5469.664,122.619,5468.008,122.48,5466.352z"/>
	<circle fill="#4AB973" cx="77.25" cy="5426.628" r="9.129"/>
</g>
<g>
	<circle fill="#4AB973" cx="58" cy="5280.961" r="9.462"/>
	<path fill="#4AB973" d="M122.48,5316.352H77.492v17.389h23.736c0,0.413,0,0.689,0,1.104c0,10.351-9.385,17.664-23.322,17.664
		c-18.63,0-31.74-13.248-31.74-33.396c0-13.822,5.899-24.305,15.812-29.584c-2.461-4.805-6.521-13.018-8.494-17.023
		c-17.577,8.064-28.983,25.222-28.983,46.607c0,29.809,21.804,51.889,52.716,51.889c26.222,0,45.403-19.458,45.403-49.681
		C122.619,5319.664,122.619,5318.008,122.48,5316.352z"/>
</g>
<g>
	<circle fill="#4AB973" cx="42.688" cy="5144.023" r="10.149"/>
	<path fill="#4AB973" d="M122.48,5166.352H77.492v17.389h23.736c0,0.413,0,0.689,0,1.104c0,10.351-9.385,17.664-23.322,17.664
		c-18.63,0-31.74-13.248-31.74-33.396c0-8.026,2-14.916,5.609-20.324L34.34,5137.98c-6.251,8.476-9.84,19.138-9.84,31.131
		c0,29.809,21.804,51.889,52.716,51.889c26.222,0,45.403-19.458,45.403-49.681C122.619,5169.664,122.619,5168.008,122.48,5166.352z"
		/>
</g>
<g>
	<circle fill="#4AB973" cx="35.316" cy="5019.524" r="10.816"/>
	<path fill="#4AB973" d="M122.48,5016.352H77.492v17.389h23.736c0,0.413,0,0.689,0,1.104c0,10.351-9.385,17.664-23.322,17.664
		c-18.571,0-31.653-13.166-31.736-33.207l-21.661,0.189c0.185,29.615,21.927,51.51,52.707,51.51
		c26.222,0,45.403-19.458,45.403-49.681C122.619,5019.664,122.619,5018.008,122.48,5016.352z"/>
</g>
<g>
	<circle fill="#4AB973" cx="45.732" cy="4898.274" r="10.198"/>
	<path fill="#4AB973" d="M122.48,4866.352H77.492v17.389h23.736c0,0.413,0,0.689,0,1.104c0,10.351-9.385,17.664-23.322,17.664
		c-9.924,0-18.278-3.762-23.921-10.321c-4.534,3.602-11.816,9.392-15.978,12.731C47.374,4914.949,61.044,4921,77.216,4921
		c26.222,0,45.403-19.458,45.403-49.681C122.619,4869.664,122.619,4868.008,122.48,4866.352z"/>
</g>
<g>
	<circle fill="#4AB973" cx="76.066" cy="4761.774" r="9.198"/>
	<path fill="#4AB973" d="M122.48,4716.352H77.492v17.389h23.736c0,0.413,0,0.689,0,1.104c0,10.351-9.385,17.664-23.322,17.664
		c-0.529,0-1.052-0.016-1.573-0.037v18.509c0.295,0.004,0.585,0.021,0.882,0.021c26.222,0,45.403-19.458,45.403-49.681
		C122.619,4719.664,122.619,4718.008,122.48,4716.352z"/>
</g>
<g>
	<circle fill="#4AB973" cx="105.128" cy="4599.462" r="8.76"/>
	<path fill="#4AB973" d="M101.229,4584.844c0,3.692-1.213,6.987-3.382,9.713l14.285,10.137c6.621-8.439,10.488-19.819,10.488-33.374
		c0-1.655,0-3.312-0.139-4.968H77.492v17.389h23.736C101.229,4584.153,101.229,4584.43,101.229,4584.844z"/>
</g>
<g>
	<circle fill="#4AB973" cx="111.145" cy="4434.354" r="9.903"/>
	<path fill="#4AB973" d="M101.229,4434.053l19.475,2.911c1.245-4.81,1.916-10.037,1.916-15.645c0-1.655,0-3.312-0.139-4.968H77.492
		v17.389h23.736C101.229,4433.857,101.229,4433.951,101.229,4434.053z"/>
</g>
<g>
	<circle fill="#4AB973" cx="110.957" cy="4278.188" r="11.284"/>
	<path fill="#4AB973" d="M101.229,4283.761l20.91-4.401c0.315-2.579,0.48-5.254,0.48-8.021c0-1.655,0-3.312-0.139-4.968H77.492
		v17.389h23.736C101.229,4283.76,101.229,4283.76,101.229,4283.761z"/>
</g>
<g>
	<circle fill="#4AB973" cx="113.756" cy="4125.07" r="8.701"/>
	<path fill="#4AB973" d="M101.229,4133.761l12.854,0.004c0.315-2.579,8.348-5.246,8.348-8.014c0-1.184,0.101-3.781,0.101-6.251
		c0-1.5-0.781-3.13-3.115-3.13c-2.667,0-41.924,0-41.924,0v17.389h23.736C101.229,4133.76,101.229,4133.76,101.229,4133.761z"/>
</g>
<g>
	<path fill="#4AB973" d="M101.229,3983.761l12.854,0.004c0.315-2.579,4.667-4.913,4.667-7.681c0-1.184-0.5-3.197-0.5-5.667
		c0-1.5-2.416-4.047-4.75-4.047c-2.667,0-36.008,0-36.008,0v17.389h23.736C101.229,3983.76,101.229,3983.76,101.229,3983.761z"/>
	<circle fill="#4AB973" cx="113.756" cy="3975.07" r="8.701"/>
</g>
<g>
	<circle fill="#4AB973" cx="111.006" cy="3825.07" r="8.701"/>
	<path fill="#4AB973" d="M110.875,3833.764v-17.394c-8.473,0-33.383,0-33.383,0v17.389h23.736c0,0.001,0,0.001,0,0.002
		L110.875,3833.764z"/>
</g>
<g>
	<circle fill="#4AB973" cx="104.673" cy="3675.07" r="8.701"/>
	<path fill="#4AB973" d="M104.167,3683.764v-17.394c-6.77,0-26.675,0-26.675,0v17.389h18.967c0,0.001,0,0.001,0,0.002
		L104.167,3683.764z"/>
</g>
<g>
	<circle fill="#4AB973" cx="97.589" cy="3525.07" r="8.701"/>
	<path fill="#4AB973" d="M97.589,3533.764v-17.394c-5.101,0-20.097,0-20.097,0v17.389h14.29c0,0.001,0,0.001,0,0.002
		L97.589,3533.764z"/>
</g>
<g>
	<circle fill="#4AB973" cx="91.339" cy="3375.062" r="8.701"/>
	<path fill="#4AB973" d="M91.339,3383.756v-17.394c-3.514,0-13.847,0-13.847,0v17.389h9.846c0,0.001,0,0.001,0,0.002
		L91.339,3383.756z"/>
</g>
<g>
	<circle fill="#4AB973" cx="86.193" cy="3225.063" r="8.701"/>
	<path fill="#4AB973" d="M86.193,3233.757v-17.394c-2.208,0-8.701,0-8.701,0v17.389h6.187c0,0.001,0,0.001,0,0.002L86.193,3233.757z
		"/>
</g>
<g>
	<path fill="#4AB973" d="M92.519,3075.069c0,4.805-3.896,8.7-8.7,8.7c-4.806,0-4.943-3.896-4.943-8.7s0.138-8.7,4.943-8.7
		C88.623,3066.369,92.519,3070.265,92.519,3075.069z"/>
	<g>
		<path fill="#4AB973" d="M83.839,3083.762c0.088,0,0.161-0.449,0.161-0.999v-15.394c0-0.55-0.45-1-1-1h-4.508c-0.55,0-1,0.45-1,1
			v15.389c0,0.55,0.45,1,1,1h4.187c0.55,0,1,0,1,0C83.679,3083.759,83.751,3083.761,83.839,3083.762z"/>
	</g>
</g>
<g>
	<path fill="#4AB973" d="M91.269,2925.125c0,4.805-3.896,8.7-8.7,8.7c-4.806,0-4.943-3.896-4.943-8.7s0.138-8.7,4.943-8.7
		C87.373,2916.425,91.269,2920.32,91.269,2925.125z"/>
	<g>
		<path fill="#4AB973" d="M84.527,2933.816c0.466,0.001,0.848-1.348,0.848-2.998v-11.394c0-1.65-1.35-3-3-3h-1.883
			c-1.65,0-3,1.35-3,3v11.389c0,1.65,1.35,3,3,3h0.187c1.65,0,3,0,3,0.001C83.679,2933.814,84.061,2933.816,84.527,2933.816z"/>
	</g>
</g>
<g>
	<path fill="#4AB973" d="M94.686,2775.125c0,4.805-3.896,8.7-8.7,8.7c-4.806,0-4.943-3.896-4.943-8.7s0.138-8.7,4.943-8.7
		C90.79,2766.425,94.686,2770.32,94.686,2775.125z"/>
	<g>
		<path fill="#4AB973" d="M86.839,2783.816c1.738,0.001,3.161-3.148,3.161-6.998v-3.394c0-3.85-2.814-7-6.254-7s-6.254,3.15-6.254,7
			v3.389c0,3.85,1.392,7,3.093,7s3.093,0,3.093,0.001C83.679,2783.814,85.101,2783.816,86.839,2783.816z"/>
	</g>
</g>
<circle fill="#4AB973" cx="86.162" cy="2625.163" r="8.662"/>
<circle fill="#4AB973" cx="91.829" cy="2475.075" r="8.662"/>
</svg>
